<?xml version="1.0" encoding="UTF-8" standalone="no"?>
<svg
   height="12"
   viewBox="0 0 16 12"
   width="16"
   version="1.1"
   id="svg4"
   sodipodi:docname="int.svg"
   inkscape:version="1.2.2 (b0a8486541, 2022-12-01)"
   xmlns:inkscape="http://www.inkscape.org/namespaces/inkscape"
   xmlns:sodipodi="http://sodipodi.sourceforge.net/DTD/sodipodi-0.dtd"
   xmlns="http://www.w3.org/2000/svg"
   xmlns:svg="http://www.w3.org/2000/svg">
  <defs
     id="defs8" />
  <sodipodi:namedview
     id="namedview6"
     pagecolor="#ffffff"
     bordercolor="#666666"
     borderopacity="1.0"
     inkscape:showpageshadow="2"
     inkscape:pageopacity="0.0"
     inkscape:pagecheckerboard="0"
     inkscape:deskcolor="#d1d1d1"
     showgrid="false"
     inkscape:zoom="74.75"
     inkscape:cx="8"
     inkscape:cy="6.0133779"
     inkscape:window-width="2530"
     inkscape:window-height="1050"
     inkscape:window-x="30"
     inkscape:window-y="0"
     inkscape:window-maximized="1"
     inkscape:current-layer="svg4" />
  <path
     d="m1 2v2h2v-2zm11 0v5a3 3 0 0 0 3 3h1v-2h-1a1 1 0 0 1 -1-1v-1h2v-2h-2v-2zm-8 2v6h2v-4h1a1 1 0 0 1 1 1v3h2v-3a3 3 0 0 0 -3-3h-1zm-3 2v4h2v-4z"
     fill="#5abbef"
     id="path2"
     style="fill:#ffffff" />
</svg>
