<?xml version="1.0" encoding="UTF-8" standalone="no"?>
<svg
   viewBox="0 0 16 12"
   version="1.1"
   id="svg6"
   sodipodi:docname="icon_vector4.svg"
   inkscape:version="1.2.2 (b0a8486541, 2022-12-01)"
   xmlns:inkscape="http://www.inkscape.org/namespaces/inkscape"
   xmlns:sodipodi="http://sodipodi.sourceforge.net/DTD/sodipodi-0.dtd"
   xmlns="http://www.w3.org/2000/svg"
   xmlns:svg="http://www.w3.org/2000/svg">
  <defs
     id="defs10" />
  <sodipodi:namedview
     id="namedview8"
     pagecolor="#ffffff"
     bordercolor="#666666"
     borderopacity="1.0"
     inkscape:showpageshadow="2"
     inkscape:pageopacity="0.0"
     inkscape:pagecheckerboard="0"
     inkscape:deskcolor="#d1d1d1"
     showgrid="false"
     inkscape:zoom="74.75"
     inkscape:cx="8"
     inkscape:cy="6.0133779"
     inkscape:window-width="2530"
     inkscape:window-height="1050"
     inkscape:window-x="30"
     inkscape:window-y="0"
     inkscape:window-maximized="1"
     inkscape:current-layer="svg6" />
  <path
     d="M1 4v6h2a3 3 0 0 0 3-3V4H4v3a1 1 0 0 1-1 1V4zm5 3a3 3 0 0 0 3 3h1V8H9a1 1 0 0 1 0-2h1V4H9a3 3 0 0 0-3 3z"
     fill="#de66f0"
     id="path2"
     style="fill:#ffffff" />
  <path
     d="m12.467 1.523-1.526 5.694 3.02-.015.044 3.795h1.98V5.116h-2.373l.943-3.595z"
     fill="#eba2f6"
     id="path4"
     style="fill:#ffffff" />
</svg>
