<svg height="16" viewBox="0 0 16 16" width="16" xmlns="http://www.w3.org/2000/svg"><path d="m7.9629 1.002a1.0001 1.0001 0 0 0 -.41016.10352l-6 3a1.0001 1.0001 0 0 0 -.55273.89453v6a1.0001 1.0001 0 0 0 .55273.89453l6 3a1.0001 1.0001 0 0 0 .89453 0l6-3a1.0001 1.0001 0 0 0 .55273-.89453v-6a1.0001 1.0001 0 0 0 -.55273-.89453l-6-3a1.0001 1.0001 0 0 0 -.48438-.10352zm.0371091 2.1172 3.7636999 1.8809-3.7636999 1.8828-3.7637001-1.8828zm-5.0000002 3.498 4.0000001 2v3.7656l-4.0000001-2z" fill="#fff" fill-rule="evenodd" stroke-width=".999999"/></svg>