<svg height="16" viewBox="0 0 16 16" width="16" xmlns="http://www.w3.org/2000/svg"><path d="m8.0039 1a1.0001 1.0001 0 0 0 -.4511699.1113l-6.0000001 3a1.0001 1.0001 0 0 0 0 1.7891l6.0000001 3a1.0001 1.0001 0 0 0 .8945299 0l4.5527-2.2754v3.7636l-5 2.5-5.5527001-2.7773a1.0001329 1.0001328 0 0 0 -.8945299 1.7891l6.0000001 3a1.0001 1.0001 0 0 0 .8945299 0l6-3a1.0001 1.0001 0 0 0 .55273-.8946v-6a1.0001 1.0001 0 0 0 -1.4473-.8945l-5.5527001 2.7773-3.7637-1.8828 4.2109001-2.1054a1.0001 1.0001 0 0 0 -.44336-1.9004z" fill="#fff" fill-rule="evenodd"/></svg>