<svg height="16" viewBox="0 0 16 16" width="16" xmlns="http://www.w3.org/2000/svg"><path d="m.96137611 13.140765s1.45409499-6.1215501 7.42280859-7.2724984c5.7471373.8566219 6.7442313 7.2724984 6.7442313 7.2724984" fill="none" stroke="#fff" stroke-miterlimit="4.9" stroke-width="1.70846"/><ellipse cx="1.898304" cy="13.491526" fill="#e0e0e0" rx="1.267586" ry="1.199789"/><ellipse cx="14.237288" cy="13.491526" fill="#e0e0e0" rx="1.267586" ry="1.199789"/><path d="m8.2372518 5.1396989h-4.3345878" fill="none" stroke="#fff" stroke-width=".809147"/><path d="m12.449003 5.1093876h-4.2099508" fill="none" stroke="#fff" stroke-width=".720278"/><g fill="#e0e0e0"><ellipse cx="8.271187" cy="4.779661" rx="1.267586" ry="1.199789"/><path d="m3.1539157 3.4305762a1.2675855 1.1997888 0 0 0 -1.2675781 1.1992188 1.2675855 1.1997888 0 0 0 1.2675781 1.1992187 1.2675855 1.1997888 0 0 0 1.2675781-1.1992187 1.2675855 1.1997888 0 0 0 -1.2675781-1.1992188zm.00195.4238282a.84677333.80148375 0 0 1 .8476593.8007812.84677333.80148375 0 0 1 -.8476562.8007812.84677333.80148375 0 0 1 -.8476562-.8007812.84677333.80148375 0 0 1 .8476562-.8007812z"/><path d="m13.093969 3.3750567a1.2675855 1.1997888 0 0 0 -1.267578 1.1992188 1.2675855 1.1997888 0 0 0 1.267578 1.1992187 1.2675855 1.1997888 0 0 0 1.267578-1.1992187 1.2675855 1.1997888 0 0 0 -1.267578-1.1992188zm.002.4238282a.84677333.80148375 0 0 1 .847659.8007812.84677333.80148375 0 0 1 -.847656.8007812.84677333.80148375 0 0 1 -.847656-.8007812.84677333.80148375 0 0 1 .847656-.8007812z"/></g></svg>