<svg height="16" viewBox="0 0 16 16" width="16" xmlns="http://www.w3.org/2000/svg"><path d="m8.123321 2.0230422q1.150996 0 1.956693.3781845.82214.3617416 1.23321.986568.41107.6248264.41107 1.3811952 0 .6741548-.246642 1.1509961-.230199.4768412-.559055.7728116-.328856.2959704-.871468.6905976-.6577124.4439556-.9701256.8056972-.3124132.3452988-.3124132.9043541v.41107h-2.3677632v-.5097268q0-.7728117.2301992-1.2989813.246642-.5426124.575498-.8385828.3452988-.3124132.8550256-.6741548.493284-.328856.7234832-.575498.2301992-.2466421.2301992-.6083837 0-.4439556-.3124132-.6905976-.2959704-.246642-.8385828-.246642-1.0358964 0-1.9238077 1.0030108l-1.6607228-1.2825384q1.4962948-1.7593797 3.8476153-1.7593797zm-.5097268 8.9777688q.6083836 0 1.0358964.443956.4439556.427513.4439556 1.035896 0 .624827-.4439556 1.068782-.4275128.427513-1.0358964.427513-.6083836 0-1.0523392-.427513-.4275129-.443955-.4275129-1.068782 0-.608383.4275129-1.035896.4439556-.443956 1.0523392-.443956z" fill="#e0e0e0"/></svg>