<svg enable-background="new" height="16" viewBox="0 0 16 16" width="16" xmlns="http://www.w3.org/2000/svg"><path d="m7 1-.5644531 2.2578125c-.3833928.1379205-.7408054.4040768-1.0761719.046875l-1.6015625-.9609375-1.4140625 1.4140625 1.1953125 1.9941406c-.1706946.369732-.2325796.8107377-.7226563.7949219l-1.8164062.453125c.0000409.6317562.0009593 1.3320057.00391 1.9199219l2.2578088.5644531c.1386709.3826756.4033649.73917.046875 1.074219l-.9609376 1.603515 1.4140626 1.414063 1.9941406-1.195313c.3697304.170694.8107379.23258.7949218.722657l.453125 1.816406c.6666323-.00004 1.3335065.00014 2 0l.5644532-2.257813c.3833928-.137921.7408046-.404072 1.0761716-.04687l1.601563.960938 1.414062-1.414063-1.195312-1.99414c.170695-.3697377.23258-.8107429.722656-.7949271l1.816406-.453125c.000752-.6362994-.003606-1.3416717-.003906-1.9199219l-2.257812-.5644531c-.138671-.3826756-.403368-.7391696-.046876-1.0742188l.960938-1.6035156-1.414062-1.4140625-1.994141 1.1953125c-.369732-.1706947-.8107378-.2325796-.794922-.7226563l-.453125-1.8164062c-.6666322.00004-1.3335065-.00014002-2 0zm.9570312 4.9921875c1.0447008-.0239958 2.0375307.8727739 2.0371094 1.9472656-.0239282.8666922-.607351 1.7228662-1.4902344 1.9179688-1.1908644.3530491-2.5002729-.6501869-2.4941406-1.8847657.0273189-.8639847.6100356-1.7156469 1.4902344-1.9101562.1510299-.044775.3049221-.0668187.4570312-.0703125z" fill="#e0e0e0"/></svg>